#!OML:ASF H:\Terrain\Patient Classification 1\Walking\liu\liu.ASF
:FULLY-SPECIFIED
:DEGREES
130
root 18.174160 31.868401 -38.152000 12.310200 15.844760 12.156720
lowerback -16.699221 -8.197340 -14.150540
upperback -2.383620 -9.774060 3.720580
thorax 8.378960 -5.107360 10.629160
lowerneck -39.372200 -11.032460 -26.429199
upperneck 41.102001 -12.948100 22.767401
head 21.372200 -5.413880 10.687360
rclavicle 0.000000 0.000000
rhumerus -95.309402 11.482500 -165.170395
rradius 64.778000
rwrist -38.185799
rhand -62.182400 -39.924400
rfingers 14.250040
rthumb -8.742380 -99.794197
lclavicle 0.000000 0.000000
lhumerus -64.257401 -49.206001 197.217606
lradius 70.949402
lwrist 10.026300
lhand -30.280199 -50.874001
lfingers 14.250040
lthumb 22.059401 8.506500
rfemur -84.679001 17.891001 10.783860
rtibia 54.881599
rfoot -44.564400 -22.342600
rtoes -41.681198
lfemur 40.658001 2.534020 -53.140598
ltibia -0.000000
lfoot -27.437799 -4.081840
ltoes -18.616640
131
root 18.119419 31.819401 -37.827999 12.301860 16.545280 12.728900
lowerback -16.187780 -8.413860 -14.819260
upperback -2.426780 -10.038620 3.626560
thorax 8.135920 -5.239820 10.901600
lowerneck -39.386799 -11.161560 -26.566200
upperneck 41.417400 -13.059880 22.566799
head 21.503799 -5.500200 10.626460
rclavicle -0.000000 0.000000
rhumerus -95.407997 11.175080 -165.035599
rradius 63.931999
rwrist -38.125198
rhand -61.431198 -42.896000
rfingers 14.250040
rthumb -8.016920 -102.779999
lclavicle -0.000000 0.000000
lhumerus -64.935204 -47.543400 197.501404
lradius 69.409798
lwrist 9.675720
lhand -27.999001 -49.428200
lfingers 14.250040
lthumb 24.259199 9.828560
rfemur -84.074600 16.399561 11.113800
rtibia 55.751598
rfoot -42.742802 -20.195000
rtoes -39.379398
lfemur 41.960602 2.403300 -53.071201
ltibia -0.000000
lfoot -26.228001 -4.073680
ltoes -19.496099
132
root 18.059879 31.774599 -37.490601 12.602480 16.747120 12.649640
lowerback -16.311541 -8.358100 -14.812880
upperback -2.477120 -9.960360 3.721380
thorax 8.148180 -5.200680 11.003360
lowerneck -39.602001 -11.314120 -26.921400
upperneck 41.206402 -13.147240 22.686199
head 21.498800 -5.547120 10.709720
rclavicle -0.000000 -0.000000
rhumerus -95.414200 10.545480 -164.724792
rradius 63.054001
rwrist -37.775600
rhand -57.610401 -56.613998
rfingers 14.250040
rthumb -4.327180 -116.551598
lclavicle -0.000000 -0.000000
lhumerus -65.363197 -46.099602 197.830795
lradius 67.397003
lwrist 8.947080
lhand -26.994400 -48.671600
lfingers 14.250040
lthumb 25.227800 10.526600
rfemur -84.155998 15.119660 12.365500
rtibia 56.953400
rfoot -39.250401 -19.506260
rtoes -41.065201
lfemur 42.888199 2.743900 -52.252800
ltibia -0.000000
lfoot -25.344601 -4.687680
ltoes -19.431641
133
root 18.010920 31.766399 -37.141201 12.785600 17.291300 12.239040
lowerback -16.486401 -8.384340 -14.203380
upperback -2.386040 -10.033840 3.714000
thorax 8.300120 -5.234700 10.627840
lowerneck -40.160599 -11.349740 -26.529200
upperneck 40.924599 -13.189200 22.554001
head 21.487400 -5.531040 10.574020
rclavicle 0.000000 -0.000000
rhumerus -95.796402 10.275140 -164.703598
rradius 62.888802
rwrist -37.420200
rhand -51.794601 -70.285400
rfingers 14.250040
rthumb 1.289856 -130.242996
lclavicle 0.000000 -0.000000
lhumerus -65.745399 -44.692799 197.641998
lradius 65.613800
lwrist 8.152620
lhand -27.181400 -47.995998
lfingers 14.250040
lthumb 25.047400 11.213420
rfemur -84.080002 13.190060 14.269620
rtibia 58.157398
rfoot -33.796600 -20.267000
rtoes -45.986000
lfemur 43.862801 2.768460 -50.982399
ltibia 0.000000
lfoot -24.233601 -5.940960
ltoes -15.366880
134
root 17.968760 31.780800 -36.788601 12.665160 17.774580 11.909040
lowerback -16.216881 -8.496940 -13.744780
upperback -2.184100 -10.242580 3.756560
thorax 8.356940 -5.339600 10.395000
lowerneck -40.575600 -11.348260 -26.040199
upperneck 40.422001 -13.171580 22.261801
head 21.349600 -5.502040 10.365240
rclavicle 0.000000 0.000000
rhumerus -96.059799 10.534760 -164.802399
rradius 63.041801
rwrist -37.032799
rhand -53.397400 -68.018402
rfingers 14.250040
rthumb -0.258076 -127.977798
lclavicle 0.000000 0.000000
lhumerus -65.823997 -42.361401 197.137207
lradius 63.715801
lwrist 6.972000
lhand -26.463800 -47.546001
lfingers 14.250040
lthumb 25.739401 11.620340
rfemur -83.863998 11.337600 15.931280
rtibia 59.456200
rfoot -28.062799 -20.583000
rtoes -46.591400
lfemur 45.166401 2.874800 -49.831200
ltibia 0.000000
lfoot -22.614799 -6.957120
ltoes -13.192320
135
root 17.913700 31.795000 -36.444199 12.635300 18.109560 11.237440
lowerback -15.897840 -8.445500 -13.055840
upperback -2.176200 -10.268720 4.043680
thorax 8.157180 -5.339420 10.328000
lowerneck -39.994202 -11.559520 -26.794399
upperneck 39.538799 -13.361120 22.759600
head 20.996599 -5.603960 10.625340
rclavicle 0.000000 0.000000
rhumerus -96.370201 10.587900 -164.678406
rradius 62.999802
rwrist -36.850601
rhand -60.953602 -58.126400
rfingers 14.250040
rthumb -7.555800 -118.018997
lclavicle 0.000000 0.000000
lhumerus -66.186798 -40.210999 197.318604
lradius 61.271801
lwrist 5.613340
lhand -26.839001 -47.856602
lfingers 14.250040
lthumb 25.377600 11.332440
rfemur -83.954201 10.381300 17.492861
rtibia 60.999802
rfoot -23.470200 -20.698400
rtoes -40.872200
lfemur 46.264198 3.171180 -48.476200
ltibia 0.000000
lfoot -21.047400 -6.647580
ltoes -20.643600
136
root 17.851179 31.799000 -36.093601 12.841240 18.408060 10.558320
lowerback -16.126160 -8.260220 -12.106120
upperback -2.158080 -10.087940 4.010460
thorax 8.192620 -5.234480 9.769940
lowerneck -39.673599 -11.780580 -27.179800
upperneck 39.098400 -13.715580 23.380600
head 20.870199 -5.734140 10.854980
rclavicle -0.000000 0.000000
rhumerus -96.854202 10.176060 -164.980392
rradius 62.640800
rwrist -37.580601
rhand -60.881599 -59.220200
rfingers 14.250040
rthumb -7.486360 -119.113998
lclavicle -0.000000 0.000000
lhumerus -66.541801 -39.446999 197.243195
lradius 58.498199
lwrist 4.687200
lhand -28.460600 -48.838402
lfingers 14.250040
lthumb 23.813999 10.444380
rfemur -84.181198 9.514520 19.095739
rtibia 62.714199
rfoot -20.194799 -20.876600
rtoes -38.386799
lfemur 46.967800 3.480420 -47.078800
ltibia -0.000000
lfoot -19.346979 -6.318660
ltoes -25.981400
137
root 17.793921 31.786800 -35.735802 12.936080 18.310881 10.182120
lowerback -16.330200 -7.996140 -11.473560
upperback -2.037260 -9.769260 3.799860
thorax 8.318520 -5.069220 9.220920
lowerneck -40.259602 -11.855040 -26.850201
upperneck 38.997200 -13.919600 23.708599
head 20.974199 -5.746780 10.883220
rclavicle 0.000000 0.000000
rhumerus -97.285400 9.924160 -165.554001
rradius 61.910801
rwrist -37.510601
rhand -54.795399 -65.229797
rfingers 14.250040
rthumb -1.608458 -125.186203
lclavicle 0.000000 0.000000
lhumerus -66.762398 -38.297798 196.694397
lradius 55.956200
lwrist 3.876220
lhand -28.817400 -49.142399
lfingers 14.250040
lthumb 23.469999 10.160240
rfemur -84.473801 8.430020 20.613600
rtibia 64.753403
rfoot -17.444500 -20.126400
rtoes -41.290600
lfemur 47.816200 4.136840 -45.936401
ltibia 0.000000
lfoot -17.699739 -6.672380
ltoes -25.923800
138
root 17.741961 31.760799 -35.397800 13.008280 18.009899 9.844420
lowerback -15.992420 -7.572000 -10.941720
upperback -2.129520 -9.269400 3.759520
thorax 7.923760 -4.800020 8.972480
lowerneck -40.445599 -11.998160 -27.212601
upperneck 38.929600 -14.151660 24.405199
head 21.064199 -5.796640 11.167180
rclavicle -0.000000 -0.000000
rhumerus -97.633400 9.466720 -165.637405
rradius 61.202000
rwrist -36.168999
rhand -52.000000 -65.998398
rfingers 14.250040
rthumb 1.091470 -125.956398
lclavicle -0.000000 -0.000000
lhumerus -67.526398 -35.601200 196.198196
lradius 54.293400
lwrist 2.853060
lhand -27.548599 -48.526199
lfingers 14.250040
lthumb 24.693399 10.704760
rfemur -85.048203 7.162720 22.165800
rtibia 67.115402
rfoot -14.816320 -18.242121
rtoes -43.991798
lfemur 48.680599 4.986660 -44.846199
ltibia 0.000000
lfoot -15.546360 -7.049940
ltoes -26.897200
139
root 17.694500 31.733000 -35.067200 13.096060 17.844379 9.943060
lowerback -15.563520 -7.428700 -10.924620
upperback -2.178320 -9.102780 3.723880
thorax 7.608440 -4.708200 8.974620
lowerneck -40.315800 -11.999120 -27.303200
upperneck 38.791801 -14.170280 24.568800
head 21.004000 -5.797580 11.237680
rclavicle 0.000000 0.000000
rhumerus -97.540398 9.554420 -165.746994
rradius 60.926201
rwrist -35.956001
rhand -53.308601 -61.034599
rfingers 14.250040
rthumb -0.172442 -120.994003
lclavicle 0.000000 0.000000
lhumerus -67.601402 -30.424999 194.530807
lradius 52.493000
lwrist 1.087700
lhand -12.451240 -37.157001
lfingers 14.250040
lthumb 39.230999 20.903799
rfemur -85.430397 5.933800 23.046200
rtibia 69.437599
rfoot -12.879200 -15.925280
rtoes -44.178600
lfemur 49.584599 5.667000 -44.231201
ltibia 0.000000
lfoot -12.373920 -7.205980
ltoes -27.217199
140
root 17.638760 31.723801 -34.725800 13.115940 17.703100 10.229100
lowerback -15.354900 -7.429460 -11.168920
upperback -2.057640 -9.087500 3.565940
thorax 7.622140 -4.706420 8.956420
lowerneck -40.278999 -11.910100 -26.759600
upperneck 38.294399 -14.095060 24.245600
head 20.770800 -5.757460 11.019460
rclavicle 0.000000 0.000000
rhumerus -97.341599 9.873980 -166.052795
rradius 60.567001
rwrist -36.038799
rhand -55.698399 -53.660198
rfingers 14.250040
rthumb -2.480480 -113.612396
lclavicle 0.000000 0.000000
lhumerus -67.179199 -25.002600 192.178207
lradius 50.166599
lwrist -1.056384
lhand -4.528760 -33.325199
lfingers 14.250040
lthumb 46.839600 23.864401
rfemur -85.584999 5.387200 23.353800
rtibia 71.537598
rfoot -11.507560 -13.713500
rtoes -40.922199
lfemur 50.588402 6.309340 -43.832001
ltibia -0.000000
lfoot -9.239120 -6.982700
ltoes -25.967199
141
root 17.573681 31.731400 -34.382000 13.038420 17.309641 10.063360
lowerback -15.000220 -7.069900 -10.930580
upperback -2.104820 -8.645260 3.479200
thorax 7.295720 -4.473220 8.809880
lowerneck -40.220798 -12.099580 -26.755199
upperneck 37.795799 -14.356500 24.365601
head 20.625401 -5.864560 11.005540
rclavicle -0.000000 -0.000000
rhumerus -97.533600 9.142020 -165.636398
rradius 59.943199
rwrist -34.886799
rhand -56.934799 -50.429199
rfingers 14.250040
rthumb -3.674580 -110.372803
lclavicle -0.000000 -0.000000
lhumerus -67.430000 -21.181999 190.435196
lradius 48.278400
lwrist -2.995280
lhand -0.030894 -32.363400
lfingers 14.250040
lthumb 51.151199 24.242399
rfemur -85.665199 4.990980 24.402201
rtibia 73.412003
rfoot -10.187280 -11.939560
rtoes -38.094601
lfemur 51.533401 7.240340 -42.965801
ltibia -0.000000
lfoot -6.155960 -6.412360
ltoes -26.424801
142
root 17.509359 31.747601 -34.037399 13.059640 16.950480 9.807000
lowerback -14.612260 -6.784500 -10.720740
upperback -2.237060 -8.308520 3.582360
thorax 6.893340 -4.290900 8.866600
lowerneck -39.920399 -12.355140 -27.487000
upperneck 37.047798 -14.632380 25.067200
head 20.406000 -5.977120 11.326680
rclavicle -0.000000 0.000000
rhumerus -97.682800 8.867860 -165.210403
rradius 59.457802
rwrist -34.100201
rhand -57.286800 -51.778999
rfingers 14.250040
rthumb -4.014560 -111.719597
lclavicle -0.000000 0.000000
lhumerus -68.366600 -17.865080 189.248001
lradius 45.799400
lwrist -8.921880
lhand -6.657020 -37.581001
lfingers 14.250040
lthumb 44.797401 19.861780
rfemur -85.452797 4.204260 25.851200
rtibia 74.954803
rfoot -9.671060 -10.750920
rtoes -39.286598
lfemur 52.348400 8.135740 -41.994202
ltibia -0.000000
lfoot -2.919340 -6.057580
ltoes -29.397200
